<?xml version="1.0" encoding="UTF-8"?>
<!DOCTYPE svg PUBLIC "-//W3C//DTD SVG 1.1//EN" "http://www.w3.org/Graphics/SVG/1.1/DTD/svg11.dtd">
<svg xmlns="http://www.w3.org/2000/svg" version="1.1" width="120px" height="120px" style="shape-rendering:geometricPrecision; text-rendering:geometricPrecision; image-rendering:optimizeQuality; fill-rule:evenodd; clip-rule:evenodd" xmlns:xlink="http://www.w3.org/1999/xlink">
<g><path style="opacity:0.93" fill="#1e252e" d="M 110.5,15.5 C 110.665,18.5184 110.498,21.5184 110,24.5C 104.313,28.6971 98.8133,33.0304 93.5,37.5C 90.911,37.461 88.911,38.461 87.5,40.5C 84.883,41.7859 82.5496,43.4525 80.5,45.5C 78.6115,46.604 76.9448,47.9373 75.5,49.5C 74.391,49.5569 73.391,49.8902 72.5,50.5C 71.5269,48.0521 71.1936,45.3854 71.5,42.5C 79.137,37.5216 86.4703,32.1883 93.5,26.5C 99.0248,22.5737 104.691,18.907 110.5,15.5 Z"/></g>
<g><path style="opacity:0.993" fill="#404a5e" d="M 110.5,15.5 C 104.691,18.907 99.0248,22.5737 93.5,26.5C 84.7651,25.8207 75.9318,25.154 67,24.5C 51.7439,25.7015 36.4105,25.7015 21,24.5C 18.5501,25.6422 16.0501,26.6422 13.5,27.5C 26.4661,18.345 39.7995,9.67836 53.5,1.5C 70.8333,5.33333 88.1667,9.16667 105.5,13C 107.653,13.0995 109.319,13.9328 110.5,15.5 Z"/></g>
<g><path style="opacity:0.965" fill="#363c49" d="M 12.5,29.5 C 32.1015,34.1555 51.7681,38.4888 71.5,42.5C 71.1936,45.3854 71.5269,48.0521 72.5,50.5C 72.5,50.8333 72.5,51.1667 72.5,51.5C 70.0971,51.552 67.7638,51.2186 65.5,50.5C 60.8936,49.2453 56.227,48.2453 51.5,47.5C 48.1959,46.5059 44.8625,45.5059 41.5,44.5C 40.1585,46.0049 38.4918,46.6715 36.5,46.5C 40.5178,43.9294 39.8512,42.9294 34.5,43.5C 27.4752,41.8269 20.4752,39.9936 13.5,38C 12.5562,35.2809 12.2229,32.4475 12.5,29.5 Z"/></g>
<g><path style="opacity:1" fill="#485267" d="M 93.5,26.5 C 86.4703,32.1883 79.137,37.5216 71.5,42.5C 51.7681,38.4888 32.1015,34.1555 12.5,29.5C 12.3284,28.5084 12.6618,27.8417 13.5,27.5C 16.0501,26.6422 18.5501,25.6422 21,24.5C 36.4105,25.7015 51.7439,25.7015 67,24.5C 75.9318,25.154 84.7651,25.8207 93.5,26.5 Z"/></g>
<g><path style="opacity:1" fill="#702f90" d="M 93.5,37.5 C 95.5,37.8333 97.5,38.1667 99.5,38.5C 99.5,39.8333 99.5,41.1667 99.5,42.5C 95.3532,43.3564 91.3532,42.6897 87.5,40.5C 88.911,38.461 90.911,37.461 93.5,37.5 Z"/></g>
<g><path style="opacity:0.986" fill="#1c232d" d="M 110.5,47.5 C 110.667,60.8375 110.5,74.1708 110,87.5C 97.378,97.8797 84.5446,107.88 71.5,117.5C 71.5,103.167 71.5,88.8333 71.5,74.5C 84.6453,65.7565 97.6453,56.7565 110.5,47.5 Z"/></g>
<g><path style="opacity:1" fill="#cba661" d="M 87.5,40.5 C 91.3532,42.6897 95.3532,43.3564 99.5,42.5C 100.5,42.8333 101.167,43.5 101.5,44.5C 99.974,46.4499 98.974,48.7833 98.5,51.5C 95.7984,53.22 93.1318,54.8866 90.5,56.5C 92.3859,53.2034 91.7192,50.7034 88.5,49C 91.7904,48.4106 93.2904,49.9106 93,53.5C 94.4868,51.728 94.8201,49.728 94,47.5C 89.5867,45.6237 85.0867,44.957 80.5,45.5C 82.5496,43.4525 84.883,41.7859 87.5,40.5 Z"/></g>
<g><path style="opacity:0.986" fill="#343b49" d="M 12.5,61.5 C 29.9134,65.3465 47.2468,69.5131 64.5,74C 66.8098,74.4966 69.1432,74.6633 71.5,74.5C 71.5,88.8333 71.5,103.167 71.5,117.5C 52.0221,112.629 32.6887,107.129 13.5,101C 12.5106,87.9128 12.1773,74.7461 12.5,61.5 Z"/></g>
<g><path style="opacity:1" fill="#3f485f" d="M 34.5,43.5 C 39.8512,42.9294 40.5178,43.9294 36.5,46.5C 35.1667,46.5 34.5,47.1667 34.5,48.5C 31.1441,47.8622 29.1441,49.1956 28.5,52.5C 26.744,53.5521 26.0773,55.2188 26.5,57.5C 25.5655,58.5676 25.2322,59.901 25.5,61.5C 38.9673,64.0333 52.3006,67.2 65.5,71C 67.7116,71.7891 69.7116,71.6225 71.5,70.5C 72.1667,70.5 72.5,70.1667 72.5,69.5C 74.8525,68.6597 76.8525,67.3264 78.5,65.5C 79.1667,65.5 79.5,65.1667 79.5,64.5C 82.3702,63.5667 84.7036,61.9 86.5,59.5C 88.4044,59.2624 89.7377,58.2624 90.5,56.5C 93.1318,54.8866 95.7984,53.22 98.5,51.5C 98.974,48.7833 99.974,46.4499 101.5,44.5C 104.632,45.36 107.632,46.36 110.5,47.5C 97.6453,56.7565 84.6453,65.7565 71.5,74.5C 69.1432,74.6633 66.8098,74.4966 64.5,74C 47.2468,69.5131 29.9134,65.3465 12.5,61.5C 19.499,55.1751 26.8323,49.1751 34.5,43.5 Z"/></g>
<g><path style="opacity:1" fill="#b99256" d="M 26.5,57.5 C 26.5,58.5 26.5,59.5 26.5,60.5C 41.8488,62.3458 56.8488,65.6792 71.5,70.5C 69.7116,71.6225 67.7116,71.7891 65.5,71C 52.3006,67.2 38.9673,64.0333 25.5,61.5C 25.2322,59.901 25.5655,58.5676 26.5,57.5 Z"/></g>
<g><path style="opacity:1" fill="#e1b966" d="M 28.5,52.5 C 32.8595,53.0067 37.1928,53.6734 41.5,54.5C 41.6107,55.1174 41.944,55.6174 42.5,56C 51.8333,58.3333 61.1667,60.6667 70.5,63C 73.5916,64.459 74.2583,66.6256 72.5,69.5C 72.5,70.1667 72.1667,70.5 71.5,70.5C 56.8488,65.6792 41.8488,62.3458 26.5,60.5C 26.5,59.5 26.5,58.5 26.5,57.5C 26.0773,55.2188 26.744,53.5521 28.5,52.5 Z"/></g>
<g><path style="opacity:1" fill="#c59e5b" d="M 65.5,50.5 C 67.7638,51.2186 70.0971,51.552 72.5,51.5C 71.1917,52.2323 69.8584,53.0656 68.5,54C 72.5,55 76.5,56 80.5,57C 81.1905,58.0674 81.6905,59.2341 82,60.5C 82.4828,59.552 82.6495,58.552 82.5,57.5C 84.1993,57.5271 85.5326,58.1938 86.5,59.5C 84.7036,61.9 82.3702,63.5667 79.5,64.5C 79.9863,62.1933 79.9863,60.0266 79.5,58C 73.9601,56.7854 68.6268,55.2854 63.5,53.5C 65.0481,53.1788 65.7148,52.1788 65.5,50.5 Z"/></g>
<g><path style="opacity:1" fill="#c69b5b" d="M 43.5,50.5 C 44.4511,51.9187 44.7845,53.5853 44.5,55.5C 53.8899,57.3472 63.2232,59.5138 72.5,62C 73.9733,62.7096 74.6399,63.8762 74.5,65.5C 75.8333,65.5 77.1667,65.5 78.5,65.5C 76.8525,67.3264 74.8525,68.6597 72.5,69.5C 74.2583,66.6256 73.5916,64.459 70.5,63C 61.1667,60.6667 51.8333,58.3333 42.5,56C 41.944,55.6174 41.6107,55.1174 41.5,54.5C 43.1765,53.8166 43.8432,52.4832 43.5,50.5 Z"/></g>
<g><path style="opacity:1" fill="#debb69" d="M 90.5,56.5 C 89.7377,58.2624 88.4044,59.2624 86.5,59.5C 85.5326,58.1938 84.1993,57.5271 82.5,57.5C 82.6495,58.552 82.4828,59.552 82,60.5C 81.6905,59.2341 81.1905,58.0674 80.5,57C 76.5,56 72.5,55 68.5,54C 69.8584,53.0656 71.1917,52.2323 72.5,51.5C 72.5,51.1667 72.5,50.8333 72.5,50.5C 73.391,49.8902 74.391,49.5569 75.5,49.5C 79.4432,50.4855 83.4432,51.1522 87.5,51.5C 87.5,50.1667 87.5,48.8333 87.5,47.5C 84.9327,47.2785 82.5994,46.6118 80.5,45.5C 85.0867,44.957 89.5867,45.6237 94,47.5C 94.8201,49.728 94.4868,51.728 93,53.5C 93.2904,49.9106 91.7904,48.4106 88.5,49C 91.7192,50.7034 92.3859,53.2034 90.5,56.5 Z"/></g>
<g><path style="opacity:1" fill="#e4bd6a" d="M 51.5,47.5 C 50.1501,48.8235 50.3167,49.8235 52,50.5C 55.8301,51.5823 59.6635,52.5823 63.5,53.5C 68.6268,55.2854 73.9601,56.7854 79.5,58C 79.9863,60.0266 79.9863,62.1933 79.5,64.5C 79.5,65.1667 79.1667,65.5 78.5,65.5C 77.1667,65.5 75.8333,65.5 74.5,65.5C 74.6399,63.8762 73.9733,62.7096 72.5,62C 63.2232,59.5138 53.8899,57.3472 44.5,55.5C 44.7845,53.5853 44.4511,51.9187 43.5,50.5C 40.4606,49.99 37.4606,49.3234 34.5,48.5C 34.5,47.1667 35.1667,46.5 36.5,46.5C 38.4918,46.6715 40.1585,46.0049 41.5,44.5C 44.8625,45.5059 48.1959,46.5059 51.5,47.5 Z"/></g>
<g><path style="opacity:1" fill="#983026" d="M 34.5,48.5 C 37.4606,49.3234 40.4606,49.99 43.5,50.5C 43.8432,52.4832 43.1765,53.8166 41.5,54.5C 37.1928,53.6734 32.8595,53.0067 28.5,52.5C 29.1441,49.1956 31.1441,47.8622 34.5,48.5 Z"/></g>
<g><path style="opacity:1" fill="#dc663e" d="M 51.5,47.5 C 56.227,48.2453 60.8936,49.2453 65.5,50.5C 65.7148,52.1788 65.0481,53.1788 63.5,53.5C 59.6635,52.5823 55.8301,51.5823 52,50.5C 50.3167,49.8235 50.1501,48.8235 51.5,47.5 Z"/></g>
<g><path style="opacity:1" fill="#459128" d="M 80.5,45.5 C 82.5994,46.6118 84.9327,47.2785 87.5,47.5C 87.5,48.8333 87.5,50.1667 87.5,51.5C 83.4432,51.1522 79.4432,50.4855 75.5,49.5C 76.9448,47.9373 78.6115,46.604 80.5,45.5 Z"/></g>
<g><path style="opacity:1" fill="#747c8a" d="M 36.5,94.5 C 39.6189,95.8699 42.9523,96.8699 46.5,97.5C 47.1667,98.1667 47.8333,98.8333 48.5,99.5C 41.8217,98.2724 35.4884,96.2724 29.5,93.5C 31.4023,90.6627 32.069,87.3293 31.5,83.5C 34.9881,83.7054 38.3214,84.5387 41.5,86C 38.8428,86.1747 36.1761,86.0081 33.5,85.5C 33.3359,88.1873 33.5026,90.854 34,93.5C 34.6708,94.2524 35.5041,94.5858 36.5,94.5 Z"/></g>
<g><path style="opacity:1" fill="#d8dde3" d="M 46.5,97.5 C 42.9523,96.8699 39.6189,95.8699 36.5,94.5C 35.6314,92.283 35.298,89.9496 35.5,87.5C 40.216,87.846 44.8827,88.5127 49.5,89.5C 49.5,92.1667 49.5,94.8333 49.5,97.5C 48.5,97.5 47.5,97.5 46.5,97.5 Z"/></g>
<g><path style="opacity:1" fill="#9ea4ae" d="M 48.5,99.5 C 47.8333,98.8333 47.1667,98.1667 46.5,97.5C 47.5,97.5 48.5,97.5 49.5,97.5C 49.5,94.8333 49.5,92.1667 49.5,89.5C 44.8827,88.5127 40.216,87.846 35.5,87.5C 35.298,89.9496 35.6314,92.283 36.5,94.5C 35.5041,94.5858 34.6708,94.2524 34,93.5C 33.5026,90.854 33.3359,88.1873 33.5,85.5C 36.1761,86.0081 38.8428,86.1747 41.5,86C 38.3214,84.5387 34.9881,83.7054 31.5,83.5C 32.069,87.3293 31.4023,90.6627 29.5,93.5C 29.5,89.5 29.5,85.5 29.5,81.5C 36.8924,83.0148 44.2258,84.8481 51.5,87C 52.4667,91.4014 52.8,95.9014 52.5,100.5C 50.901,100.768 49.5676,100.434 48.5,99.5 Z"/></g>
<g><path style="opacity:0.004" fill="#353b4c" d="M 12.5,105.5 C 12.8966,104.475 13.5632,104.308 14.5,105C 13.9056,105.464 13.2389,105.631 12.5,105.5 Z"/></g>
<g><path style="opacity:0.004" fill="#343c4c" d="M 26.5,107.5 C 26.8966,106.475 27.5632,106.308 28.5,107C 27.9056,107.464 27.2389,107.631 26.5,107.5 Z"/></g>
</svg>
