<?xml version="1.0" standalone="no"?>
<!DOCTYPE svg PUBLIC "-//W3C//DTD SVG 20010904//EN"
 "http://www.w3.org/TR/2001/REC-SVG-20010904/DTD/svg10.dtd">
<svg version="1.0" xmlns="http://www.w3.org/2000/svg"
 width="800.000000pt" height="600.000000pt" viewBox="0 0 800.000000 600.000000"
 preserveAspectRatio="xMidYMid meet">
<metadata>
Created by potrace 1.15, written by Peter Selinger 2001-2017
</metadata>
<g transform="translate(0.000000,600.000000) scale(0.100000,-0.100000)"
fill="#ffffff" stroke="none">
<path d="M0 3000 l0 -3000 4000 0 4000 0 0 3000 0 3000 -4000 0 -4000 0 0
-3000z m2555 831 c131 -86 238 -114 397 -104 128 8 130 -26 5 -83 -52 -23 -75
-28 -147 -28 -116 0 -180 26 -266 107 -68 63 -94 101 -94 137 0 31 22 25 105
-29z m3009 41 c9 -16 -34 -89 -81 -136 -114 -116 -265 -152 -416 -99 -60 22
-113 64 -102 83 6 9 29 11 93 7 159 -10 268 19 394 103 71 47 102 59 112 42z
m-1441 -112 c29 -11 73 -33 97 -48 38 -24 50 -27 78 -20 19 5 55 8 80 6 38 -2
48 -7 50 -23 2 -16 -12 -28 -73 -58 l-76 -37 30 -38 c41 -50 48 -91 26 -147
-34 -91 -140 -124 -220 -70 -20 15 -39 25 -40 23 -1 -2 -14 -27 -29 -55 -14
-29 -33 -53 -41 -53 -8 0 -27 25 -42 55 -15 30 -31 55 -35 55 -4 0 -24 -11
-44 -25 -93 -63 -224 6 -224 117 0 48 12 77 45 111 l28 27 -76 35 c-84 39 -95
49 -76 72 11 13 27 14 89 9 70 -6 78 -4 113 20 94 64 237 82 340 44z m-1462
-197 c64 -23 90 -27 194 -27 107 -1 129 2 208 28 67 23 90 27 99 18 27 -27
-73 -116 -169 -152 -83 -31 -214 -26 -295 12 -99 46 -188 148 -130 148 10 0
52 -12 93 -27z m2289 0 c66 -24 90 -27 200 -27 110 0 134 3 200 27 91 32 110
34 110 7 0 -29 -65 -86 -140 -123 -55 -27 -77 -32 -155 -35 -74 -3 -101 0
-148 18 -89 34 -190 121 -173 149 10 16 22 14 106 -16z m-1604 -87 c9 -24 -24
-82 -78 -136 -102 -101 -236 -140 -368 -106 -81 21 -152 61 -148 84 3 15 20
17 133 18 73 0 150 6 175 13 52 15 156 67 220 110 51 35 58 37 66 17z m1384
-17 c63 -42 155 -88 214 -107 38 -12 86 -16 184 -15 131 2 133 2 130 -20 -4
-30 -96 -75 -181 -90 -124 -21 -249 22 -342 118 -54 55 -81 104 -71 130 8 21
15 19 66 -16z m-1177 -76 c-4 -98 -119 -240 -228 -284 -102 -40 -291 -30 -309
17 -7 18 12 26 127 52 134 32 189 63 292 169 50 50 97 91 105 89 11 -1 15 -13
13 -43z m1019 -46 c121 -120 165 -142 391 -191 38 -9 36 -40 -5 -57 -54 -23
-202 -17 -271 10 -105 41 -212 165 -233 270 -7 33 0 61 15 61 5 0 52 -42 103
-93z m-873 -141 c9 -10 8 -45 -5 -142 -8 -71 -18 -221 -20 -334 -6 -228 -8
-250 -29 -250 -60 0 -96 315 -59 510 21 114 68 230 93 230 5 0 14 -6 20 -14z
m668 -38 c65 -130 92 -384 59 -548 -17 -84 -39 -140 -55 -140 -23 0 -29 41
-34 245 -3 121 -13 274 -21 340 -9 65 -13 128 -10 138 10 30 36 15 61 -35z
m-537 -157 c5 -11 10 -77 10 -148 1 -70 5 -173 10 -228 25 -265 24 -254 5
-261 -27 -11 -51 25 -80 119 -48 149 -45 381 5 495 21 46 34 52 50 23z m395
-12 c26 -49 45 -157 45 -257 0 -190 -73 -413 -121 -365 -9 9 -8 52 5 181 9 93
16 230 16 305 0 74 3 142 6 151 10 25 32 19 49 -15z m-188 -122 c33 -99 34
-586 2 -713 -12 -47 -40 -60 -57 -26 -43 81 -42 715 1 770 17 22 41 8 54 -31z"/>
<path d="M2460 3857 c0 -26 64 -109 112 -147 68 -54 143 -80 232 -80 75 0 160
22 210 55 45 30 31 37 -66 30 -156 -12 -270 19 -398 105 -80 53 -90 57 -90 37z"/>
<path d="M5460 3820 c-130 -88 -240 -116 -399 -105 -112 8 -118 -3 -25 -50 49
-24 74 -30 149 -33 107 -5 176 16 253 78 66 52 137 160 105 160 -5 0 -42 -23
-83 -50z"/>
<path d="M3915 3761 c-50 -13 -107 -40 -140 -65 -28 -22 -36 -23 -84 -14 -54
9 -101 5 -101 -10 0 -4 26 -20 58 -36 31 -15 67 -34 80 -42 l22 -15 -34 -34
c-56 -56 -60 -125 -11 -184 51 -60 138 -65 196 -10 17 16 33 28 34 27 2 -2 17
-31 34 -66 17 -34 35 -61 39 -58 4 2 21 32 36 65 l29 60 33 -29 c40 -35 90
-46 137 -31 100 33 123 158 42 229 l-34 31 84 43 c47 24 85 47 85 51 0 16 -36
20 -98 9 -62 -10 -67 -9 -96 13 -76 58 -225 90 -311 66z m220 -103 c25 -7 45
-16 45 -20 0 -4 -4 -8 -9 -8 -24 0 -103 -87 -134 -149 l-34 -68 -12 32 c-20
57 -74 127 -124 163 l-50 36 39 12 c52 16 222 17 279 2z m-285 -168 c28 -28
25 -64 -6 -89 -34 -27 -50 -26 -79 4 -30 29 -31 45 -4 79 25 31 61 34 89 6z
m392 3 c40 -36 13 -106 -42 -106 -37 0 -60 23 -60 62 0 53 62 80 102 44z"/>
<path d="M3905 3653 c-48 -10 -47 -13 12 -76 33 -35 65 -78 72 -95 l13 -32 34
58 c19 31 53 73 76 93 l42 37 -39 11 c-39 11 -169 13 -210 4z"/>
<path d="M3778 3486 c-21 -15 -24 -56 -6 -74 19 -19 66 -15 78 7 14 28 13 38
-10 61 -23 23 -38 25 -62 6z"/>
<path d="M4172 3484 c-41 -29 -23 -84 28 -84 49 0 68 51 32 83 -23 21 -32 21
-60 1z"/>
<path d="M2560 3570 c0 -23 74 -83 140 -114 59 -28 74 -31 160 -30 80 0 104 4
151 26 63 29 139 92 139 115 0 8 -6 13 -13 10 -113 -43 -189 -60 -277 -60 -92
0 -118 6 -282 60 -11 3 -18 0 -18 -7z"/>
<path d="M4860 3567 c0 -23 76 -86 139 -115 48 -23 70 -26 151 -27 83 0 103 4
152 27 87 40 163 106 145 124 -2 2 -37 -7 -78 -20 -184 -60 -296 -55 -496 21
-7 3 -13 -2 -13 -10z"/>
<path d="M3275 3443 c-137 -96 -261 -130 -423 -119 -111 8 -118 -3 -31 -47
148 -75 326 -44 443 77 50 51 84 110 68 120 -4 2 -29 -12 -57 -31z"/>
<path d="M4676 3472 c-9 -15 29 -77 76 -125 114 -114 291 -142 438 -69 87 44
78 53 -47 46 -159 -9 -267 21 -393 110 -63 45 -68 47 -74 38z"/>
<path d="M3450 3332 c-115 -120 -173 -148 -392 -196 -37 -8 -35 -22 5 -34 175
-54 367 29 447 191 32 66 48 127 34 127 -5 0 -47 -40 -94 -88z"/>
<path d="M4466 3412 c-3 -6 0 -30 8 -56 42 -140 159 -242 305 -265 79 -13 201
5 201 30 0 5 -10 11 -22 13 -203 40 -284 80 -400 198 -47 49 -89 85 -92 80z"/>
<path d="M3667 3180 c-44 -63 -87 -262 -87 -403 1 -133 47 -323 70 -287 5 8
10 93 10 187 0 95 7 238 16 317 8 79 14 159 12 177 l-3 34 -18 -25z"/>
<path d="M4320 3165 c0 -22 7 -103 15 -180 8 -77 15 -216 15 -310 0 -93 5
-177 10 -185 23 -36 69 154 70 287 0 145 -45 351 -90 405 l-19 23 -1 -40z"/>
<path d="M3786 2961 c-60 -151 -38 -443 42 -569 28 -44 33 -7 17 141 -8 81
-15 204 -15 275 0 189 -12 231 -44 153z"/>
<path d="M4186 2969 c-3 -17 -6 -90 -6 -161 0 -71 -7 -194 -15 -274 -9 -80
-13 -150 -9 -155 19 -31 63 69 88 201 26 133 17 286 -20 381 -19 47 -29 49
-38 8z"/>
<path d="M3990 2875 c-22 -57 -32 -233 -27 -440 5 -203 20 -310 42 -310 6 0
16 23 24 50 20 69 22 575 3 657 -16 67 -28 80 -42 43z"/>
</g>
</svg>
