<?xml version="1.0" standalone="no"?>
<!DOCTYPE svg PUBLIC "-//W3C//DTD SVG 20010904//EN"
 "http://www.w3.org/TR/2001/REC-SVG-20010904/DTD/svg10.dtd">
<svg version="1.0" xmlns="http://www.w3.org/2000/svg"
 width="500.000000pt" height="500.000000pt" viewBox="0 0 500.000000 500.000000"
 preserveAspectRatio="xMidYMid meet">

<g transform="translate(0.000000,500.000000) scale(0.100000,-0.100000)"
fill="#000000" stroke="none">
<path d="M2451 4306 c-7 -18 -18 -26 -34 -26 -35 0 -181 -74 -205 -104 -22
-29 -65 -134 -82 -204 -9 -36 -17 -46 -45 -58 -52 -22 -58 -41 -45 -148 9 -71
9 -111 1 -167 -20 -125 -33 -149 -103 -196 -35 -22 -72 -46 -83 -51 -11 -6
-126 -12 -255 -14 -196 -4 -246 -8 -300 -25 -136 -41 -142 -47 -220 -249 l-54
-139 -6 -200 c-5 -158 -13 -241 -39 -395 -18 -107 -42 -215 -52 -240 l-20 -45
20 -17 c26 -20 26 -31 2 -110 -48 -161 -76 -307 -111 -588 -33 -259 -42 -308
-71 -360 -10 -19 -23 -47 -29 -62 -5 -16 -16 -28 -24 -28 -21 0 -438 -140
-454 -153 -22 -18 -13 -24 66 -41 83 -18 116 -13 155 21 19 18 18 18 35 -20
15 -35 38 -35 112 4 l59 31 136 -12 c107 -10 138 -10 150 0 8 7 15 17 15 22 0
17 182 542 191 552 11 12 45 -19 168 -159 105 -118 121 -141 121 -177 0 -13 7
-32 15 -42 8 -11 15 -27 15 -37 0 -21 24 -41 64 -54 25 -8 32 -17 36 -45 5
-34 6 -35 55 -36 28 -1 86 -6 130 -12 140 -18 623 8 984 54 172 22 189 30 253
122 16 23 35 42 42 42 18 0 186 -116 220 -152 39 -41 73 -54 207 -78 147 -26
163 -26 207 9 35 27 90 51 117 51 7 0 15 -13 18 -29 4 -16 17 -39 29 -51 21
-20 30 -22 118 -16 52 3 127 8 167 12 53 5 83 2 119 -10 56 -19 146 -21 177
-4 12 6 46 15 75 19 30 4 57 10 60 13 3 4 -11 24 -32 45 -46 47 -44 59 20 103
100 69 111 83 143 181 47 144 91 320 91 364 0 53 -52 155 -105 208 -22 22 -72
55 -110 74 -39 19 -75 41 -82 50 -7 9 -24 50 -38 92 -15 44 -37 86 -51 100
-40 38 -70 96 -103 204 -23 74 -91 360 -91 382 0 2 7 3 15 3 8 0 15 5 15 10 0
6 -5 10 -10 10 -6 0 -18 17 -26 38 -9 20 -24 55 -34 77 -29 67 -195 282 -241
312 -40 26 -49 28 -148 28 -58 0 -148 -4 -199 -9 -132 -13 -127 -19 -249 279
-86 211 -122 273 -183 325 -115 96 -244 130 -310 82 -17 -13 -34 -22 -36 -19
-3 2 12 42 32 88 20 46 40 94 45 107 5 12 20 27 33 32 13 5 26 13 29 17 3 5
-17 56 -46 113 -40 81 -68 121 -130 186 -85 90 -141 122 -197 111 -29 -6 -36
0 -30 28 1 5 -8 1 -20 -10 -21 -19 -22 -19 -36 -1 -13 18 -14 18 -23 -8z"/>
</g>
</svg>
